<svg xmlns="http://www.w3.org/2000/svg" xmlns:xlink="http://www.w3.org/1999/xlink" aria-hidden="true" focusable="false" role="img" class="iconify iconify--whh" width="0.75em" height="1em" preserveAspectRatio="xMidYMid meet" viewBox="0 0 768 1024" style="transform: rotate(360deg);"><path d="M681 576q41 36 64 86t23 106v192q0 27-18.5 45.5t-45 18.5t-45.5-18.5t-19-45.5V768q0-53-37.5-90.5T512 640H128v320q0 27-19 45.5T63.5 1024t-45-18.5T0 960V64q0-26 18.5-45T64 0h448q106 0 181 75t75 181v128q0 56-23 106t-64 86zm-41-320q0-53-37.5-90.5T512 128H128v384h384q53 0 90.5-37.5T640 384V256z" fill="currentColor"></path></svg>